<svg id="mermaid-1627817640064" width="100%" xmlns="http://www.w3.org/2000/svg" xmlns:xlink="http://www.w3.org/1999/xlink" height="376" style="max-width: 578.09375px;" viewBox="-20 -20 578.09375 376"><style>#mermaid-1627817640064 {font-family:"trebuchet ms",verdana,arial,sans-serif;font-size:16px;fill:#333;}#mermaid-1627817640064 .error-icon{fill:#552222;}#mermaid-1627817640064 .error-text{fill:#552222;stroke:#552222;}#mermaid-1627817640064 .edge-thickness-normal{stroke-width:2px;}#mermaid-1627817640064 .edge-thickness-thick{stroke-width:3.5px;}#mermaid-1627817640064 .edge-pattern-solid{stroke-dasharray:0;}#mermaid-1627817640064 .edge-pattern-dashed{stroke-dasharray:3;}#mermaid-1627817640064 .edge-pattern-dotted{stroke-dasharray:2;}#mermaid-1627817640064 .marker{fill:#333333;stroke:#333333;}#mermaid-1627817640064 .marker.cross{stroke:#333333;}#mermaid-1627817640064 svg{font-family:"trebuchet ms",verdana,arial,sans-serif;font-size:16px;}#mermaid-1627817640064 g.classGroup text{fill:#9370DB;fill:#131300;stroke:none;font-family:"trebuchet ms",verdana,arial,sans-serif;font-size:10px;}#mermaid-1627817640064 g.classGroup text .title{font-weight:bolder;}#mermaid-1627817640064 .classTitle{font-weight:bolder;}#mermaid-1627817640064 .node rect,#mermaid-1627817640064 .node circle,#mermaid-1627817640064 .node ellipse,#mermaid-1627817640064 .node polygon,#mermaid-1627817640064 .node path{fill:#ECECFF;stroke:#9370DB;stroke-width:1px;}#mermaid-1627817640064 .divider{stroke:#9370DB;stroke:1;}#mermaid-1627817640064 g.clickable{cursor:pointer;}#mermaid-1627817640064 g.classGroup rect{fill:#ECECFF;stroke:#9370DB;}#mermaid-1627817640064 g.classGroup line{stroke:#9370DB;stroke-width:1;}#mermaid-1627817640064 .classLabel .box{stroke:none;stroke-width:0;fill:#ECECFF;opacity:0.5;}#mermaid-1627817640064 .classLabel .label{fill:#9370DB;font-size:10px;}#mermaid-1627817640064 .relation{stroke:#333333;stroke-width:1;fill:none;}#mermaid-1627817640064 .dashed-line{stroke-dasharray:3;}#mermaid-1627817640064 #compositionStart,#mermaid-1627817640064 .composition{fill:#333333!important;stroke:#333333!important;stroke-width:1;}#mermaid-1627817640064 #compositionEnd,#mermaid-1627817640064 .composition{fill:#333333!important;stroke:#333333!important;stroke-width:1;}#mermaid-1627817640064 #dependencyStart,#mermaid-1627817640064 .dependency{fill:#333333!important;stroke:#333333!important;stroke-width:1;}#mermaid-1627817640064 #dependencyStart,#mermaid-1627817640064 .dependency{fill:#333333!important;stroke:#333333!important;stroke-width:1;}#mermaid-1627817640064 #extensionStart,#mermaid-1627817640064 .extension{fill:#333333!important;stroke:#333333!important;stroke-width:1;}#mermaid-1627817640064 #extensionEnd,#mermaid-1627817640064 .extension{fill:#333333!important;stroke:#333333!important;stroke-width:1;}#mermaid-1627817640064 #aggregationStart,#mermaid-1627817640064 .aggregation{fill:#ECECFF!important;stroke:#333333!important;stroke-width:1;}#mermaid-1627817640064 #aggregationEnd,#mermaid-1627817640064 .aggregation{fill:#ECECFF!important;stroke:#333333!important;stroke-width:1;}#mermaid-1627817640064 .edgeTerminals{font-size:11px;}#mermaid-1627817640064 :root{--mermaid-font-family:"trebuchet ms",verdana,arial,sans-serif;}</style><g/><defs><marker id="extensionStart" class="extension" refX="0" refY="7" markerWidth="190" markerHeight="240" orient="auto"><path d="M 1,7 L18,13 V 1 Z"/></marker></defs><defs><marker id="extensionEnd" refX="19" refY="7" markerWidth="20" markerHeight="28" orient="auto"><path d="M 1,1 V 13 L18,7 Z"/></marker></defs><defs><marker id="compositionStart" class="extension" refX="0" refY="7" markerWidth="190" markerHeight="240" orient="auto"><path d="M 18,7 L9,13 L1,7 L9,1 Z"/></marker></defs><defs><marker id="compositionEnd" refX="19" refY="7" markerWidth="20" markerHeight="28" orient="auto"><path d="M 18,7 L9,13 L1,7 L9,1 Z"/></marker></defs><defs><marker id="aggregationStart" class="extension" refX="0" refY="7" markerWidth="190" markerHeight="240" orient="auto"><path d="M 18,7 L9,13 L1,7 L9,1 Z"/></marker></defs><defs><marker id="aggregationEnd" refX="19" refY="7" markerWidth="20" markerHeight="28" orient="auto"><path d="M 18,7 L9,13 L1,7 L9,1 Z"/></marker></defs><defs><marker id="dependencyStart" class="extension" refX="0" refY="7" markerWidth="190" markerHeight="240" orient="auto"><path d="M 5,7 L9,13 L1,7 L9,1 Z"/></marker></defs><defs><marker id="dependencyEnd" refX="19" refY="7" markerWidth="20" markerHeight="28" orient="auto"><path d="M 18,7 L9,13 L14,7 L9,1 Z"/></marker></defs><g id="classid-Class01-0" class="classGroup" transform="translate(16.7578125,0 )"><rect x="0" y="0" width="55.46875" height="68" class=" "/><text y="15" x="0"><tspan class="title" x="8.609375">Class01</tspan></text><line x1="0" y1="21" y2="21" x2="55.46875"/><text x="5" y="31" fill="white" class="classText"><tspan x="5">int chimp</tspan><tspan x="5" dy="10">int gorilla</tspan></text><line x1="0" y1="47" y2="47" x2="55.46875"/><text x="5" y="62" fill="white" class="classText"><tspan x="5">size()</tspan></text></g><g id="classid-AveryLongClass-1" class="classGroup" transform="translate(0,132 )"><rect x="0" y="0" width="88.984375" height="30" class=" "/><text y="15" x="0"><tspan class="title" x="5">AveryLongClass</tspan></text><line x1="0" y1="21" y2="21" x2="88.984375"/><text x="5" y="31" fill="white" class="classText"/><line x1="0" y1="26" y2="26" x2="88.984375"/><text x="5" y="41" fill="white" class="classText"/></g><g id="classid-Class03-2" class="classGroup" transform="translate(138.984375,19 )"><rect x="0" y="0" width="48.25" height="30" class=" "/><text y="15" x="0"><tspan class="title" x="5">Class03</tspan></text><line x1="0" y1="21" y2="21" x2="48.25"/><text x="5" y="31" fill="white" class="classText"/><line x1="0" y1="26" y2="26" x2="48.25"/><text x="5" y="41" fill="white" class="classText"/></g><g id="classid-Class04-3" class="classGroup" transform="translate(138.984375,132 )"><rect x="0" y="0" width="48.25" height="30" class=" "/><text y="15" x="0"><tspan class="title" x="5">Class04</tspan></text><line x1="0" y1="21" y2="21" x2="48.25"/><text x="5" y="31" fill="white" class="classText"/><line x1="0" y1="26" y2="26" x2="48.25"/><text x="5" y="41" fill="white" class="classText"/></g><g id="classid-Class05-4" class="classGroup" transform="translate(237.234375,19 )"><rect x="0" y="0" width="48.25" height="30" class=" "/><text y="15" x="0"><tspan class="title" x="5">Class05</tspan></text><line x1="0" y1="21" y2="21" x2="48.25"/><text x="5" y="31" fill="white" class="classText"/><line x1="0" y1="26" y2="26" x2="48.25"/><text x="5" y="41" fill="white" class="classText"/></g><g id="classid-Class06-5" class="classGroup" transform="translate(237.234375,132 )"><rect x="0" y="0" width="48.25" height="30" class=" "/><text y="15" x="0"><tspan class="title" x="5">Class06</tspan></text><line x1="0" y1="21" y2="21" x2="48.25"/><text x="5" y="31" fill="white" class="classText"/><line x1="0" y1="26" y2="26" x2="48.25"/><text x="5" y="41" fill="white" class="classText"/></g><g id="classid-Class07-6" class="classGroup" transform="translate(428.71875,118 )"><rect x="0" y="0" width="109.375" height="58" class=" "/><text y="15" x="0"><tspan class="title" x="35.5625">Class07</tspan></text><line x1="0" y1="21" y2="21" x2="109.375"/><text x="5" y="31" fill="white" class="classText"><tspan x="5">Object[] elementData</tspan></text><line x1="0" y1="37" y2="37" x2="109.375"/><text x="5" y="52" fill="white" class="classText"><tspan x="5">equals()</tspan></text></g><g id="classid-Class08-7" class="classGroup" transform="translate(459.28125,226 )"><rect x="0" y="0" width="48.25" height="30" class=" "/><text y="15" x="0"><tspan class="title" x="5">Class08</tspan></text><line x1="0" y1="21" y2="21" x2="48.25"/><text x="5" y="31" fill="white" class="classText"/><line x1="0" y1="26" y2="26" x2="48.25"/><text x="5" y="41" fill="white" class="classText"/></g><g id="classid-Class09-8" class="classGroup" transform="translate(342.9765625,19 )"><rect x="0" y="0" width="48.25" height="30" class=" "/><text y="15" x="0"><tspan class="title" x="5">Class09</tspan></text><line x1="0" y1="21" y2="21" x2="48.25"/><text x="5" y="31" fill="white" class="classText"/><line x1="0" y1="26" y2="26" x2="48.25"/><text x="5" y="41" fill="white" class="classText"/></g><g id="classid-C2-9" class="classGroup" transform="translate(409.890625,306 )"><rect x="0" y="0" width="23.234375" height="30" class=" "/><text y="15" x="0"><tspan class="title" x="5">C2</tspan></text><line x1="0" y1="21" y2="21" x2="23.234375"/><text x="5" y="31" fill="white" class="classText"/><line x1="0" y1="26" y2="26" x2="23.234375"/><text x="5" y="41" fill="white" class="classText"/></g><g id="classid-C3-10" class="classGroup" transform="translate(355.484375,132 )"><rect x="0" y="0" width="23.234375" height="30" class=" "/><text y="15" x="0"><tspan class="title" x="5">C3</tspan></text><line x1="0" y1="21" y2="21" x2="23.234375"/><text x="5" y="31" fill="white" class="classText"/><line x1="0" y1="26" y2="26" x2="23.234375"/><text x="5" y="41" fill="white" class="classText"/></g><path d="M44.4921875,68L44.4921875,72.16666666666667C44.4921875,76.33333333333333,44.4921875,84.66666666666667,44.4921875,95.33333333333333C44.4921875,106,44.4921875,119,44.4921875,125.5L44.4921875,132" id="edge0" class="relation" marker-start="url(#extensionStart)"/><g class="classLabel"><rect class="box" x="31.703125" y="88.5" width="25.578125" height="16"/><text class="label" x="44.4921875" y="100" fill="red" text-anchor="middle">Cool</text></g><path d="M163.109375,49L163.109375,56.333333333333336C163.109375,63.666666666666664,163.109375,78.33333333333333,163.109375,92.16666666666667C163.109375,106,163.109375,119,163.109375,125.5L163.109375,132" id="edge1" class="relation" marker-start="url(#compositionStart)"/><path d="M261.359375,49L261.359375,56.333333333333336C261.359375,63.666666666666664,261.359375,78.33333333333333,261.359375,92.16666666666667C261.359375,106,261.359375,119,261.359375,125.5L261.359375,132" id="edge2" class="relation" marker-start="url(#aggregationStart)"/><path d="M483.40625,176L483.40625,180.16666666666666C483.40625,184.33333333333334,483.40625,192.66666666666666,483.40625,201C483.40625,209.33333333333334,483.40625,217.66666666666666,483.40625,221.83333333333334L483.40625,226" id="edge3" class="relation dashed-line"/><path d="M355.24973516949154,49L349.45550847457633,56.333333333333336C343.661281779661,63.666666666666664,332.0728283898305,78.33333333333333,326.27860169491527,94.66666666666667C320.484375,111,320.484375,129,320.484375,147C320.484375,165,320.484375,183,320.484375,198.66666666666666C320.484375,214.33333333333334,320.484375,227.66666666666666,320.484375,241C320.484375,254.33333333333334,320.484375,267.6666666666667,335.3854166666667,280.2333668445338C350.2864583333333,292.8000670224009,380.0885416666667,304.6001340448019,394.9895833333333,310.5001675560024L409.890625,316.40020106720283" id="edge4" class="relation" marker-end="url(#dependencyEnd)"/><g class="classLabel"><rect class="box" x="289.640625" y="195.53125" width="62.125" height="16.015625"/><text class="label" x="320.48437499999994" y="207.04125455906922" fill="red" text-anchor="middle">Where am i?</text></g><path d="M367.1015625,49L367.1015625,56.333333333333336C367.1015625,63.666666666666664,367.1015625,78.33333333333333,367.1015625,92.16666666666667C367.1015625,106,367.1015625,119,367.1015625,125.5L367.1015625,132" id="edge5" class="relation" marker-end="url(#compositionEnd)"/><path d="M391.2265625,46.238328743198764L406.58984375,54.031940619332296C421.953125,61.82555249546584,452.6796875,77.41277624773292,468.04296875,89.37305479053312C483.40625,101.33333333333333,483.40625,109.66666666666667,483.40625,113.83333333333333L483.40625,118" id="edge6" class="relation" marker-end="url(#extensionEnd)"/><path d="M483.40625,256L483.40625,260.1666666666667C483.40625,264.3333333333333,483.40625,272.6666666666667,475.0260416666667,282.24879044133115C466.6458333333333,291.8309142159956,449.8854166666667,302.66182843199124,441.5052083333333,308.0772855399891L433.125,313.49274264798686" id="edge7" class="relation" marker-start="url(#dependencyStart)" marker-end="url(#dependencyEnd)"/><g class="classLabel"><rect class="box" x="444.015625" y="278.953125" width="49.5" height="16.015625"/><text class="label" x="468.7642673955323" y="290.4619400397418" fill="red" text-anchor="middle">Cool label</text></g></svg>